<?xml version="1.0" encoding="utf-8"?>
<!-- Generator: Adobe Illustrator 17.0.0, SVG Export Plug-In . SVG Version: 6.00 Build 0)  -->
<!DOCTYPE svg PUBLIC "-//W3C//DTD SVG 1.1//EN" "http://www.w3.org/Graphics/SVG/1.1/DTD/svg11.dtd">
<svg version="1.1" id="Ebene_1" xmlns="http://www.w3.org/2000/svg" xmlns:xlink="http://www.w3.org/1999/xlink" x="0px" y="0px"
	 width="806.162px" height="84.96px" viewBox="0 0 806.162 84.96" enable-background="new 0 0 806.162 84.96" xml:space="preserve">
<path d="M793.922,84.96c-260.561,0-521.121,0-781.682,0c-0.262-0.082-0.52-0.185-0.788-0.242c-4.629-0.976-8.03-3.571-10.068-7.832
	C0.757,75.577,0.452,74.113,0,72.72C0,52.56,0,32.4,0,12.24c0.093-0.343,0.197-0.684,0.278-1.03C1.405,6.425,4.212,3.017,8.72,1.071
	C9.839,0.588,11.064,0.35,12.24,0c260.561,0,521.121,0,781.682,0c0.263,0.082,0.521,0.183,0.788,0.242
	c5.488,1.211,9.085,4.52,10.88,9.817c0.241,0.71,0.384,1.454,0.572,2.182c0,20.16,0,40.32,0,60.48
	c-0.082,0.263-0.185,0.521-0.242,0.789c-1.047,4.914-3.891,8.38-8.477,10.38C796.325,84.375,795.098,84.61,793.922,84.96z
	 M179.947,55.516c-1.015-6.241-3.112-8.809-9.158-10.703c-2.922-0.916-5.972-1.423-8.965-2.112
	c-2.058-0.474-4.133-0.885-6.168-1.444c-0.861-0.237-1.555-0.855-1.558-1.903c-0.003-1.116,0.549-1.894,1.527-2.379
	c3.473-1.722,7.422-0.142,8.678,3.459c4.774,0,9.545,0,14.358,0c0-0.339,0.02-0.576-0.003-0.809
	c-0.442-4.557-3.005-7.566-7.048-9.374c-5.094-2.279-10.501-2.623-15.979-2.264c-4.146,0.272-8.17,1.073-11.752,3.33
	c-3.677,2.317-5.366,5.699-5.128,10.025c0.225,4.096,2.498,6.78,6.026,8.567c3.911,1.981,8.18,2.626,12.424,3.406
	c1.954,0.359,3.93,0.796,5.773,1.514c1.918,0.748,2.07,3.07,0.451,4.25c-3.722,2.713-9.201,0.936-10.484-3.47
	c-4.998,0-10.018,0-15.141,0c0.035,2.875,0.902,5.374,2.704,7.536c1.953,2.343,4.487,3.851,7.34,4.782
	c7.371,2.405,14.801,2.344,22.169,0.075c5.581-1.718,9.329-5.209,9.841-11.556c1.268,6.014,3.843,9.047,9.454,11.244
	c4.719,1.847,9.65,2.158,14.631,1.858c3.766-0.227,7.467-0.885,10.887-2.596c4.877-2.438,7.352-6.369,7.153-11.862
	c-0.191-5.29-3.394-8.266-8.022-9.928c-2.356-0.846-4.829-1.387-7.275-1.951c-2.761-0.636-5.565-1.083-8.322-1.733
	c-1.095-0.258-2.135-0.831-2.11-2.248c0.022-1.261,0.806-2.108,2.31-2.543c3.696-1.068,6.49,0.258,7.909,3.746
	c4.771,0,9.538,0,14.356,0c-0.012-2.114-0.553-3.965-1.624-5.656c-1.835-2.897-4.623-4.523-7.793-5.437
	c-6.952-2.006-13.96-2.07-20.924-0.043c-3.163,0.921-6,2.467-7.903,5.304c-3.595,5.358-1.642,12.267,4.335,15.311
	c3.424,1.744,7.156,2.442,10.891,3.147c2.384,0.45,4.751,1.02,7.093,1.658c1.072,0.292,1.712,1.113,1.734,2.324
	c0.022,1.224-0.673,1.943-1.674,2.393c-2.21,0.993-4.499,1.109-6.767,0.262c-1.42-0.531-2.324-1.65-2.812-3.088
	c-0.113-0.335-0.203-0.678-0.326-1.092C189.983,55.516,184.957,55.516,179.947,55.516z M320.002,50.232
	c-0.021,0.441-0.064,0.756-0.046,1.068c0.38,6.735,3.487,11.77,9.455,14.952c5.739,3.06,11.939,3.911,18.347,3.618
	c5.447-0.249,10.709-1.255,15.521-3.981c7.946-4.502,9.63-12.74,7.848-19.211c-1.304-4.735-4.805-7.546-9.139-9.145
	c-4.138-1.527-8.496-2.45-12.731-3.726c-2.815-0.848-5.622-1.753-8.357-2.825c-1.159-0.455-2.019-1.483-1.841-2.943
	c0.173-1.417,1.167-2.147,2.386-2.58c2.125-0.755,4.314-0.819,6.495-0.293c3.232,0.778,4.351,2.05,4.75,5.273
	c5.524,0,11.051,0,16.65,0c-0.286-6.607-2.956-11.75-8.92-14.618c-8.343-4.012-17.061-4.207-25.795-1.425
	c-7.866,2.505-11.879,7.738-12.388,15.942c-0.254,4.088,1.159,7.609,4.426,10.262c2.207,1.792,4.734,2.987,7.419,3.804
	c4.429,1.347,8.908,2.531,13.34,3.871c1.671,0.505,3.332,1.131,4.882,1.926c1.633,0.838,2.028,2.208,1.484,3.974
	c-0.559,1.815-1.992,2.648-3.655,3.133c-2.436,0.71-4.905,0.614-7.349,0.015c-2.808-0.689-4.528-2.412-4.905-5.353
	c-0.074-0.579-0.193-1.152-0.292-1.736C331.712,50.232,325.924,50.232,320.002,50.232z M22.676,13.943c0,18.307,0,36.472,0,54.641
	c5.914,0,11.735,0,17.673,0c0-5.486,0-10.904,0-16.446c3.265,0,6.418,0.101,9.562-0.03c2.785-0.116,5.611-0.237,8.329-0.794
	c17.399-3.565,18.099-22.78,10.243-31.055c-4.315-4.545-9.756-6.24-15.794-6.293c-9.557-0.084-19.116-0.022-28.674-0.022
	C23.586,13.943,23.158,13.943,22.676,13.943z M617.129,68.653c-0.142-0.489-0.224-0.87-0.361-1.23
	c-6.685-17.485-13.383-34.965-20.044-52.46c-0.316-0.83-0.734-1.045-1.565-1.039c-4.998,0.035-9.997,0.043-14.995-0.005
	c-0.918-0.009-1.299,0.295-1.624,1.139c-6.741,17.507-13.517,35-20.282,52.498c-0.124,0.32-0.205,0.656-0.324,1.044
	c5.999,0,11.868,0,17.77,0c0.75-2.272,1.517-4.497,2.209-6.745c0.223-0.724,0.544-1.01,1.331-1.005
	c5.398,0.033,10.797,0.029,16.195,0.004c0.715-0.003,1.061,0.207,1.262,0.927c0.535,1.921,1.213,3.802,1.731,5.727
	c0.238,0.884,0.609,1.181,1.55,1.17c4.718-0.055,9.437-0.025,14.156-0.025C615.092,68.653,616.046,68.653,617.129,68.653z
	 M543.016,68.617c0.037-0.273,0.075-0.426,0.075-0.579c0.004-9.197,0.106-18.396-0.037-27.591
	c-0.074-4.778-2.329-8.472-6.609-10.802c-5.26-2.864-15.296-2.556-20.077,2.795c-0.142,0.158-0.338,0.268-0.741,0.581
	c0-6.509,0-12.756,0-19.007c-5.392,0-10.614,0-15.875,0c0,18.236,0,36.401,0,54.589c5.311,0,10.537,0,15.915,0
	c0-0.518,0-0.987,0-1.457c0-6.478-0.045-12.957,0.035-19.434c0.018-1.446,0.269-2.966,0.778-4.314
	c0.962-2.547,3.596-3.736,6.644-3.277c2.281,0.344,3.477,1.779,3.852,4.658c0.067,0.514,0.082,1.037,0.084,1.556
	c0.029,6.957,0.051,13.913,0.074,20.87c0.002,0.46,0,0.919,0,1.412C532.526,68.617,537.718,68.617,543.016,68.617z M448.104,28.89
	c0,0.567,0,1.038,0,1.509c0,6.557,0.023,13.115-0.022,19.672c-0.008,1.142-0.152,2.331-0.496,3.414
	c-1.086,3.421-5.197,5.049-8.426,3.441c-1.125-0.56-1.801-1.497-2.036-2.669c-0.242-1.206-0.391-2.451-0.398-3.68
	c-0.037-6.757-0.018-13.514-0.018-20.271c0-0.465,0-0.93,0-1.419c-5.414,0-10.637,0-15.901,0c-0.038,0.203-0.09,0.353-0.09,0.502
	c0.001,9.356-0.135,18.715,0.069,28.066c0.106,4.888,2.65,8.529,7.126,10.689c2.975,1.436,6.149,1.678,9.369,1.416
	c4.353-0.353,8.14-1.919,10.942-5.435c0.101-0.127,0.278-0.193,0.575-0.393c0,1.734,0,3.278,0,4.833c5.148,0,10.198,0,15.261,0
	c0-13.262,0-26.435,0-39.675C458.758,28.89,453.536,28.89,448.104,28.89z M742.865,40.941c4.748,0,9.422,0.011,14.094-0.032
	c0.243-0.002,0.623-0.43,0.7-0.722c0.369-1.409,1.264-2.286,2.591-2.756c1.782-0.631,3.604-0.682,5.427-0.224
	c1.918,0.482,3.012,1.759,2.984,3.401c-0.027,1.577-0.947,2.661-2.979,3.069c-2.502,0.502-5.04,0.833-7.568,1.195
	c-3.64,0.522-7.281,1.035-10.67,2.581c-4.509,2.057-6.776,5.52-6.625,10.526c0.148,4.899,2.364,8.554,6.97,10.189
	c7.465,2.649,14.658,2.195,21.171-2.985c0.104,0.745,0.223,1.516,0.315,2.29c0.108,0.903,0.537,1.218,1.498,1.206
	c4.638-0.058,9.277-0.025,13.916-0.028c0.339,0,0.678-0.036,1.085-0.059c-0.359-0.823-0.834-1.517-0.957-2.27
	c-0.353-2.156-0.757-4.331-0.793-6.505c-0.104-6.197-0.027-12.396-0.039-18.595c-0.015-7.31-2.902-10.908-10.023-12.448
	c-4.487-0.971-9.032-1.058-13.598-0.785c-3.691,0.221-7.317,0.725-10.71,2.298C745.23,32.34,742.514,36.547,742.865,40.941z
	 M138.434,68.653c-1.969-3.031-1.905-6.269-1.904-9.511c0.003-6.236,0.001-12.473-0.081-18.708c-0.043-3.227-0.69-6.293-3.263-8.584
	c-1.844-1.642-4.075-2.523-6.439-3.02c-6.048-1.27-12.141-1.267-18.237-0.378c-3.07,0.448-6.014,1.308-8.578,3.146
	c-3.152,2.259-4.564,5.394-4.67,9.286c4.985,0,9.848,0,14.777,0c0.21-1.922,1.301-3.228,3.086-3.543
	c1.652-0.291,3.418-0.319,5.078-0.077c1.922,0.28,2.921,1.621,2.939,3.254c0.017,1.619-0.847,2.715-2.878,3.137
	c-2.497,0.519-5.035,0.848-7.562,1.208c-3.799,0.542-7.597,1.067-11.11,2.757c-4.304,2.071-6.391,5.495-6.286,10.263
	c0.106,4.836,2.245,8.556,6.786,10.196c7.373,2.663,14.581,2.522,21.009-2.763c0.079-0.065,0.204-0.073,0.339-0.118
	c0.133,0.817,0.291,1.597,0.379,2.385c0.093,0.833,0.472,1.102,1.336,1.091c3.878-0.051,7.756-0.022,11.635-0.022
	C135.935,68.653,137.081,68.653,138.434,68.653z M395.133,69.701c1.513-0.112,3.037-0.141,4.536-0.35
	c6.718-0.936,12.256-3.813,15.691-9.918c2.354-4.182,3.023-8.744,2.463-13.453c-0.864-7.275-4.421-12.761-11.196-15.861
	c-5.173-2.367-10.645-2.675-16.205-1.898c-4.494,0.628-8.597,2.216-11.899,5.428c-5.203,5.061-6.718,11.374-5.817,18.351
	c0.943,7.297,4.75,12.606,11.543,15.603C387.699,69.125,391.366,69.666,395.133,69.701z M268.494,52.23
	c-0.314-2.724-0.448-5.243-0.916-7.698c-1.475-7.738-5.732-13.139-13.474-15.433c-3.284-0.973-6.662-1.3-10.074-1.231
	c-12.155,0.246-20.715,8.445-21.458,19.47c-0.557,8.26,2.834,15.87,10.929,19.624c7.869,3.649,15.939,3.662,23.945,0.354
	c4.166-1.722,7.32-4.652,9.323-8.742c0.232-0.473,0.408-0.973,0.668-1.598c-4.965,0-9.681-0.004-14.396,0.012
	c-0.253,0.001-0.586,0.099-0.745,0.276c-2.085,2.312-4.794,2.698-7.676,2.487c-3.832-0.28-6.93-3.744-6.651-7.52
	C248.013,52.23,258.07,52.23,268.494,52.23z M740.672,52.743c-0.49,0-0.88,0-1.269,0c-4.239,0-8.477,0.022-12.716-0.018
	c-0.882-0.008-1.296,0.145-1.531,1.136c-0.645,2.718-2.899,4.517-5.56,4.68c-3.058,0.188-5.494-1.144-6.384-3.831
	c-1.33-4.018-1.335-8.117,0.116-12.111c0.921-2.535,3.456-3.88,6.284-3.627c3.082,0.276,4.566,1.515,5.312,4.428
	c0.047,0.182,0.125,0.356,0.174,0.491c5.065,0,10.044,0,15.026,0c-0.258-6.008-4.093-11.43-10.016-13.874
	c-6.733-2.779-13.638-3.047-20.464-0.449c-15.857,6.035-16.772,25.338-6.927,34.198c7.782,7.003,21.685,7.915,30.248,1.868
	C737.386,62.512,739.845,58.211,740.672,52.743z M642.868,28.808c-2.872,0-5.573,0-8.249,0c-0.465-2.843,0.692-4.408,3.435-4.514
	c1.685-0.065,3.382,0.172,5.075,0.273c0-3.38,0-6.794,0-10.286c-5.222-0.312-10.388-0.847-15.459,0.411
	c-4.77,1.184-7.801,4.243-8.639,9.188c-0.27,1.592-0.27,3.23-0.404,4.987c-2.07,0-4.124,0-6.203,0c0,3.199,0,6.254,0,9.46
	c2.142,0,4.199,0,6.389,0c0,10.169,0,20.186,0,30.255c5.392,0,10.646,0,16.01,0c0-10.088,0-20.107,0-30.276c0.533,0,0.961,0,1.388,0
	c1.88,0,3.76-0.031,5.638,0.014c0.782,0.019,1.057-0.237,1.032-1.026c-0.049-1.558-0.014-3.119-0.014-4.678
	C642.868,31.388,642.868,30.159,642.868,28.808z M488.413,28.804c0-4.036,0-7.972,0-11.939c-5.38,0-10.63,0-16.041,0
	c0,4.007,0,7.938,0,11.996c-2.417,0-4.676,0-6.96,0c0,3.191,0,6.251,0,9.496c2.35,0,4.64,0,7.002,0c0,0.661,0,1.138,0,1.615
	c0,5.878-0.019,11.757,0.005,17.635c0.028,6.674,3.127,10.603,9.521,11.16c4.898,0.426,9.863,0.085,14.84,0.085
	c0-4.102,0-7.874,0-11.714c-1.86,0-3.652,0.108-5.424-0.032c-1.57-0.124-2.496-1.159-2.754-2.722
	c-0.104-0.628-0.178-1.268-0.18-1.903c-0.016-4.279-0.008-8.558-0.008-12.836c0-0.419,0-0.839,0-1.368c2.898,0,5.606,0,8.339,0
	c0-3.198,0-6.283,0-9.471C493.946,28.804,491.243,28.804,488.413,28.804z M75.192,14.012c0,18.237,0,36.403,0,54.561
	c5.303,0,10.521,0,15.753,0c0-18.218,0-36.355,0-54.561C85.69,14.012,80.506,14.012,75.192,14.012z M659.542,28.904
	c-5.197,0-10.213,0-15.257,0c0,13.283,0,26.486,0,39.649c5.355,0,10.609,0,15.934,0c0-0.535,0-0.971,0-1.407
	c0-4.958-0.036-9.916,0.022-14.874c0.017-1.467,0.175-2.959,0.488-4.391c1.034-4.731,3.967-6.966,9.092-6.858
	c2.076,0.044,4.145,0.414,6.271,0.642c0-4.11,0.015-8.305-0.032-12.5c-0.003-0.284-0.428-0.738-0.729-0.811
	c-0.966-0.234-1.962-0.402-2.955-0.461c-5.171-0.307-9.309,1.478-12.035,6.054c-0.191,0.32-0.415,0.621-0.799,1.19
	C659.542,32.878,659.542,30.938,659.542,28.904z M286.467,68.596c0-0.526,0-0.996,0-1.466c0-4.919-0.026-9.837,0.017-14.756
	c0.012-1.352,0.129-2.719,0.366-4.049c0.763-4.271,3.346-6.95,7.328-7.195c2.317-0.142,4.67,0.3,7.006,0.494
	c0.334,0.028,0.662,0.133,1.123,0.229c0-3.473,0-6.787,0-10.101c0-3.458,0.006-3.529-3.425-3.821
	c-5.047-0.429-9.202,1.183-12.022,5.599c-0.282,0.442-0.57,0.88-0.856,1.32c-0.084-0.033-0.168-0.067-0.253-0.1
	c0-1.942,0-3.884,0-5.852c-5.137,0-10.153,0-15.195,0c0,13.281,0,26.488,0,39.699C275.873,68.596,281.098,68.596,286.467,68.596z
	 M677.391,28.894c0,13.271,0,26.471,0,39.676c5.34,0,10.593,0,15.837,0c0-13.282,0-26.48,0-39.676
	C687.895,28.894,682.673,28.894,677.391,28.894z M693.264,14.016c-5.321,0-10.568,0-15.886,0c0,3.562,0,7.05,0,10.608
	c5.321,0,10.568,0,15.886,0C693.264,21.063,693.264,17.574,693.264,14.016z"/>
<path fill="#FFFFFF" d="M179.947,55.516c5.01,0,10.036,0,15.108,0c0.123,0.414,0.212,0.757,0.326,1.092
	c0.487,1.438,1.391,2.558,2.812,3.088c2.268,0.847,4.557,0.731,6.767-0.262c1.002-0.45,1.697-1.169,1.674-2.393
	c-0.022-1.211-0.662-2.033-1.734-2.324c-2.342-0.637-4.709-1.208-7.093-1.658c-3.736-0.705-7.467-1.403-10.891-3.147
	c-5.976-3.044-7.93-9.953-4.335-15.311c1.903-2.837,4.739-4.383,7.903-5.304c6.964-2.027,13.972-1.963,20.924,0.043
	c3.169,0.915,5.958,2.541,7.793,5.437c1.071,1.691,1.613,3.542,1.624,5.656c-4.818,0-9.586,0-14.356,0
	c-1.419-3.489-4.213-4.814-7.909-3.746c-1.504,0.434-2.288,1.282-2.31,2.543c-0.024,1.417,1.016,1.99,2.11,2.248
	c2.757,0.65,5.561,1.097,8.322,1.733c2.447,0.564,4.92,1.105,7.275,1.951c4.628,1.662,7.831,4.639,8.022,9.928
	c0.198,5.492-2.276,9.423-7.153,11.862c-3.421,1.71-7.121,2.369-10.887,2.596c-4.981,0.3-9.912-0.011-14.631-1.858
	c-5.61-2.196-8.185-5.23-9.454-11.244c-0.513,6.347-4.26,9.838-9.841,11.556c-7.368,2.269-14.798,2.329-22.169-0.075
	c-2.853-0.931-5.387-2.439-7.34-4.782c-1.802-2.162-2.67-4.661-2.704-7.536c5.123,0,10.144,0,15.141,0
	c1.284,4.406,6.762,6.183,10.484,3.47c1.619-1.18,1.467-3.502-0.451-4.25c-1.842-0.719-3.818-1.155-5.773-1.514
	c-4.244-0.78-8.514-1.426-12.424-3.406c-3.528-1.787-5.801-4.471-6.026-8.567c-0.238-4.326,1.451-7.709,5.128-10.025
	c3.582-2.257,7.607-3.058,11.752-3.33c5.478-0.359,10.885-0.014,15.979,2.264c4.043,1.808,6.606,4.817,7.048,9.374
	c0.023,0.233,0.003,0.47,0.003,0.809c-4.813,0-9.584,0-14.358,0c-1.256-3.602-5.205-5.181-8.678-3.459
	c-0.979,0.485-1.53,1.263-1.527,2.379c0.003,1.049,0.697,1.667,1.558,1.903c2.035,0.559,4.11,0.97,6.168,1.444
	c2.993,0.69,6.043,1.197,8.965,2.112C176.835,46.707,178.932,49.275,179.947,55.516z"/>
<path fill="#FFFFFF" d="M320.002,50.232c5.923,0,11.71,0,17.585,0c0.099,0.583,0.218,1.157,0.292,1.736
	c0.377,2.941,2.097,4.664,4.905,5.353c2.443,0.599,4.913,0.696,7.349-0.015c1.663-0.485,3.096-1.318,3.655-3.133
	c0.544-1.766,0.148-3.136-1.484-3.974c-1.55-0.795-3.211-1.421-4.882-1.926c-4.432-1.34-8.911-2.523-13.34-3.871
	c-2.685-0.817-5.212-2.011-7.419-3.804c-3.267-2.653-4.679-6.174-4.426-10.262c0.51-8.204,4.522-13.437,12.388-15.942
	c8.735-2.782,17.452-2.587,25.795,1.425c5.963,2.868,8.634,8.01,8.92,14.618c-5.599,0-11.126,0-16.65,0
	c-0.399-3.222-1.518-4.495-4.75-5.273c-2.181-0.525-4.37-0.461-6.495,0.293c-1.219,0.433-2.213,1.163-2.386,2.58
	c-0.179,1.46,0.681,2.489,1.841,2.943c2.735,1.073,5.542,1.978,8.357,2.825c4.235,1.275,8.593,2.199,12.731,3.726
	c4.334,1.599,7.835,4.41,9.139,9.145c1.782,6.471,0.098,14.709-7.848,19.211c-4.812,2.727-10.074,3.732-15.521,3.981
	c-6.408,0.293-12.608-0.559-18.347-3.618c-5.968-3.182-9.076-8.216-9.455-14.952C319.938,50.988,319.981,50.673,320.002,50.232z"/>
<path fill="#FFFFFF" d="M22.676,13.943c0.483,0,0.911,0,1.339,0c9.558,0,19.117-0.062,28.674,0.022
	c6.038,0.053,11.479,1.748,15.794,6.293c7.856,8.274,7.156,27.49-10.243,31.055c-2.718,0.557-5.544,0.678-8.329,0.794
	c-3.143,0.131-6.297,0.03-9.562,0.03c0,5.542,0,10.96,0,16.446c-5.938,0-11.759,0-17.673,0
	C22.676,50.415,22.676,32.25,22.676,13.943z M40.409,27.94c0,3.86,0,7.437,0,11.067c0.262,0.022,0.455,0.053,0.648,0.052
	c2.639-0.012,5.279,0.02,7.916-0.067c1.228-0.04,2.482-0.189,3.666-0.507c2.789-0.749,3.951-2.636,3.771-5.843
	c-0.138-2.452-1.517-4.058-4.305-4.286C48.253,28.041,44.374,28.064,40.409,27.94z"/>
<path fill="#FFFFFF" d="M617.129,68.653c-1.083,0-2.037,0-2.991,0c-4.719,0-9.438-0.03-14.156,0.025
	c-0.941,0.011-1.313-0.286-1.55-1.17c-0.518-1.925-1.196-3.806-1.731-5.727c-0.201-0.72-0.546-0.931-1.262-0.927
	c-5.398,0.024-10.797,0.029-16.195-0.004c-0.787-0.005-1.108,0.281-1.331,1.005c-0.692,2.248-1.459,4.473-2.209,6.745
	c-5.902,0-11.771,0-17.77,0c0.119-0.388,0.201-0.724,0.324-1.044c6.765-17.497,13.541-34.991,20.282-52.498
	c0.325-0.844,0.706-1.148,1.624-1.139c4.998,0.048,9.997,0.041,14.995,0.005c0.831-0.006,1.249,0.208,1.565,1.039
	c6.661,17.494,13.358,34.975,20.044,52.46C616.905,67.783,616.987,68.164,617.129,68.653z M592.817,48.988
	c-1.703-5.566-3.367-11.005-5.13-16.766c-1.906,5.795-3.691,11.224-5.514,16.766C585.774,48.988,589.192,48.988,592.817,48.988z"/>
<path fill="#FFFFFF" d="M543.016,68.617c-5.298,0-10.49,0-15.882,0c0-0.493,0.001-0.952,0-1.412
	c-0.023-6.957-0.045-13.914-0.074-20.87c-0.002-0.519-0.017-1.042-0.084-1.556c-0.375-2.879-1.571-4.314-3.852-4.658
	c-3.047-0.459-5.681,0.73-6.644,3.277c-0.509,1.348-0.76,2.867-0.778,4.314c-0.08,6.477-0.035,12.956-0.035,19.434
	c0,0.469,0,0.938,0,1.457c-5.379,0-10.605,0-15.915,0c0-18.188,0-36.353,0-54.589c5.26,0,10.483,0,15.875,0
	c0,6.251,0,12.498,0,19.007c0.404-0.313,0.6-0.422,0.741-0.581c4.781-5.351,14.817-5.659,20.077-2.795
	c4.28,2.33,6.535,6.025,6.609,10.802c0.143,9.195,0.04,18.394,0.037,27.591C543.091,68.192,543.053,68.345,543.016,68.617z"/>
<path fill="#FFFFFF" d="M448.104,28.89c5.432,0,10.655,0,15.956,0c0,13.24,0,26.413,0,39.675c-5.063,0-10.113,0-15.261,0
	c0-1.555,0-3.098,0-4.833c-0.297,0.199-0.474,0.266-0.575,0.393c-2.802,3.516-6.59,5.082-10.942,5.435
	c-3.22,0.261-6.395,0.02-9.369-1.416c-4.476-2.16-7.02-5.801-7.126-10.689c-0.203-9.352-0.068-18.71-0.069-28.066
	c0-0.15,0.052-0.299,0.09-0.502c5.264,0,10.487,0,15.901,0c0,0.489,0,0.954,0,1.419c0,6.757-0.019,13.514,0.018,20.271
	c0.007,1.229,0.155,2.474,0.398,3.68c0.235,1.172,0.911,2.109,2.036,2.669c3.229,1.608,7.339-0.02,8.426-3.441
	c0.344-1.084,0.488-2.272,0.496-3.414c0.045-6.557,0.022-13.114,0.022-19.672C448.104,29.928,448.104,29.457,448.104,28.89z"/>
<path fill="#FFFFFF" d="M742.865,40.941c-0.352-4.394,2.365-8.601,6.79-10.653c3.393-1.573,7.019-2.078,10.71-2.298
	c4.566-0.273,9.111-0.186,13.598,0.785c7.12,1.54,10.008,5.138,10.023,12.448c0.012,6.198-0.065,12.398,0.039,18.595
	c0.037,2.174,0.44,4.349,0.793,6.505c0.123,0.752,0.598,1.447,0.957,2.27c-0.407,0.023-0.746,0.059-1.085,0.059
	c-4.639,0.004-9.278-0.029-13.916,0.028c-0.962,0.012-1.391-0.303-1.498-1.206c-0.092-0.774-0.212-1.544-0.315-2.29
	c-6.512,5.18-13.706,5.634-21.171,2.985c-4.606-1.634-6.822-5.29-6.97-10.189c-0.151-5.006,2.116-8.469,6.625-10.526
	c3.389-1.546,7.03-2.059,10.67-2.581c2.528-0.362,5.066-0.693,7.568-1.195c2.032-0.408,2.952-1.491,2.979-3.069
	c0.028-1.642-1.066-2.919-2.984-3.401c-1.824-0.458-3.646-0.408-5.427,0.224c-1.327,0.47-2.222,1.348-2.591,2.756
	c-0.077,0.292-0.456,0.72-0.7,0.722C752.287,40.952,747.613,40.941,742.865,40.941z M768.743,51.064
	c-2.808,0.749-5.382,1.42-7.945,2.13c-0.648,0.179-1.294,0.423-1.883,0.743c-2.254,1.228-2.437,3.952-0.398,5.523
	c3.477,2.679,9.154,0.601,9.926-3.701C768.715,54.248,768.651,52.676,768.743,51.064z"/>
<path fill="#FFFFFF" d="M138.434,68.653c-1.353,0-2.499,0-3.645,0c-3.878,0-7.757-0.029-11.635,0.022
	c-0.864,0.011-1.243-0.258-1.336-1.091c-0.088-0.788-0.246-1.568-0.379-2.385c-0.136,0.045-0.261,0.054-0.339,0.118
	c-6.428,5.284-13.636,5.425-21.009,2.763c-4.541-1.64-6.68-5.36-6.786-10.196c-0.105-4.769,1.982-8.192,6.286-10.263
	c3.513-1.691,7.311-2.216,11.11-2.757c2.528-0.36,5.066-0.69,7.562-1.208c2.03-0.422,2.895-1.518,2.878-3.137
	c-0.017-1.633-1.017-2.974-2.939-3.254c-1.66-0.242-3.426-0.214-5.078,0.077c-1.786,0.315-2.876,1.621-3.086,3.543
	c-4.929,0-9.792,0-14.777,0c0.106-3.892,1.518-7.027,4.67-9.286c2.564-1.838,5.508-2.699,8.578-3.146
	c6.096-0.889,12.188-0.892,18.237,0.378c2.364,0.496,4.595,1.377,6.439,3.02c2.573,2.292,3.221,5.357,3.263,8.584
	c0.082,6.235,0.083,12.472,0.081,18.708C136.529,62.384,136.465,65.622,138.434,68.653z M121.29,51.05
	c-2.75,0.729-5.294,1.386-7.827,2.086c-0.688,0.19-1.375,0.444-2.003,0.78c-2.286,1.22-2.499,3.941-0.462,5.533
	c3.42,2.673,9.093,0.663,9.923-3.589C121.223,54.308,121.175,52.688,121.29,51.05z"/>
<path fill="#FFFFFF" d="M395.133,69.701c-3.766-0.035-7.433-0.576-10.883-2.099c-6.792-2.997-10.6-8.306-11.543-15.603
	c-0.901-6.977,0.614-13.29,5.817-18.351c3.302-3.212,7.405-4.799,11.899-5.428c5.56-0.777,11.032-0.469,16.205,1.898
	c6.775,3.1,10.332,8.585,11.196,15.861c0.559,4.709-0.11,9.271-2.463,13.453c-3.435,6.105-8.973,8.983-15.691,9.918
	C398.17,69.56,396.645,69.589,395.133,69.701z M388.274,48.747c0.283,1.776,0.404,3.586,0.881,5.297
	c0.833,2.987,2.983,4.488,6.022,4.503c3.106,0.015,5.246-1.479,6.129-4.522c1.022-3.524,1.032-7.105-0.017-10.629
	c-0.876-2.943-3.037-4.454-6.072-4.451c-3.066,0.003-5.306,1.588-6.102,4.579C388.666,45.204,388.548,46.971,388.274,48.747z"/>
<path fill="#FFFFFF" d="M268.494,52.23c-10.424,0-20.48,0-30.526,0c-0.279,3.776,2.819,7.24,6.651,7.52
	c2.882,0.211,5.591-0.175,7.676-2.487c0.159-0.176,0.492-0.275,0.745-0.276c4.715-0.016,9.431-0.012,14.396-0.012
	c-0.259,0.625-0.436,1.125-0.668,1.598c-2.003,4.09-5.157,7.02-9.323,8.742c-8.006,3.308-16.075,3.295-23.945-0.354
	c-8.096-3.754-11.486-11.364-10.929-19.624c0.743-11.024,9.303-19.224,21.458-19.47c3.412-0.069,6.791,0.258,10.074,1.231
	c7.743,2.294,11.999,7.694,13.474,15.433C268.045,46.987,268.18,49.506,268.494,52.23z M238.017,44.156c4.962,0,9.92,0,14.881,0
	c-0.108-3.658-2.935-6.384-6.605-6.463C241.516,37.591,238.349,40.046,238.017,44.156z"/>
<path fill="#FFFFFF" d="M740.672,52.743c-0.827,5.468-3.286,9.769-7.706,12.89c-8.563,6.047-22.467,5.136-30.248-1.868
	c-9.846-8.861-8.93-28.163,6.927-34.198c6.826-2.598,13.731-2.33,20.464,0.449c5.923,2.445,9.758,7.866,10.016,13.874
	c-4.982,0-9.961,0-15.026,0c-0.049-0.135-0.127-0.309-0.174-0.491c-0.746-2.913-2.23-4.152-5.312-4.428
	c-2.828-0.253-5.363,1.092-6.284,3.627c-1.451,3.994-1.447,8.094-0.116,12.111c0.89,2.687,3.325,4.019,6.384,3.831
	c2.661-0.163,4.915-1.963,5.56-4.68c0.235-0.991,0.649-1.144,1.531-1.136c4.238,0.04,8.477,0.018,12.716,0.018
	C739.792,52.743,740.181,52.743,740.672,52.743z"/>
<path fill="#FFFFFF" d="M642.868,28.808c0,1.351,0,2.58,0,3.808c0,1.56-0.035,3.12,0.014,4.678c0.025,0.79-0.25,1.045-1.032,1.026
	c-1.878-0.045-3.759-0.014-5.638-0.014c-0.428,0-0.855,0-1.388,0c0,10.169,0,20.188,0,30.276c-5.364,0-10.617,0-16.01,0
	c0-10.069,0-20.087,0-30.255c-2.19,0-4.247,0-6.389,0c0-3.206,0-6.261,0-9.46c2.079,0,4.133,0,6.203,0
	c0.134-1.757,0.134-3.394,0.404-4.987c0.838-4.945,3.869-8.005,8.639-9.188c5.071-1.258,10.237-0.724,15.459-0.411
	c0,3.492,0,6.906,0,10.286c-1.693-0.101-3.39-0.338-5.075-0.273c-2.744,0.106-3.9,1.671-3.435,4.514
	C637.295,28.808,639.997,28.808,642.868,28.808z"/>
<path fill="#FFFFFF" d="M488.413,28.804c2.83,0,5.533,0,8.34,0c0,3.187,0,6.273,0,9.471c-2.733,0-5.441,0-8.339,0
	c0,0.529,0,0.948,0,1.368c0,4.279-0.007,8.558,0.008,12.836c0.002,0.635,0.077,1.275,0.18,1.903
	c0.258,1.563,1.184,2.598,2.754,2.722c1.772,0.14,3.564,0.032,5.424,0.032c0,3.84,0,7.613,0,11.714
	c-4.977,0-9.942,0.342-14.84-0.085c-6.394-0.557-9.493-4.486-9.521-11.16c-0.025-5.878-0.005-11.757-0.005-17.635
	c0-0.477,0-0.954,0-1.615c-2.362,0-4.652,0-7.002,0c0-3.244,0-6.305,0-9.496c2.284,0,4.543,0,6.96,0c0-4.057,0-7.989,0-11.996
	c5.411,0,10.661,0,16.041,0C488.413,20.833,488.413,24.768,488.413,28.804z"/>
<path fill="#FFFFFF" d="M75.192,14.012c5.314,0,10.498,0,15.753,0c0,18.206,0,36.343,0,54.561c-5.232,0-10.45,0-15.753,0
	C75.192,50.415,75.192,32.249,75.192,14.012z"/>
<path fill="#FFFFFF" d="M659.542,28.904c0,2.034,0,3.974,0,6.235c0.384-0.569,0.608-0.869,0.799-1.19
	c2.726-4.576,6.864-6.362,12.035-6.054c0.993,0.059,1.989,0.227,2.955,0.461c0.302,0.073,0.726,0.527,0.729,0.811
	c0.047,4.195,0.032,8.39,0.032,12.5c-2.127-0.228-4.195-0.598-6.271-0.642c-5.125-0.109-8.058,2.127-9.092,6.858
	c-0.313,1.432-0.471,2.924-0.488,4.391c-0.059,4.957-0.022,9.916-0.022,14.874c0,0.436,0,0.871,0,1.407c-5.325,0-10.579,0-15.934,0
	c0-13.164,0-26.366,0-39.649C649.329,28.904,654.345,28.904,659.542,28.904z"/>
<path fill="#FFFFFF" d="M286.467,68.596c-5.369,0-10.594,0-15.91,0c0-13.211,0-26.418,0-39.699c5.042,0,10.059,0,15.195,0
	c0,1.969,0,3.91,0,5.852c0.084,0.033,0.168,0.067,0.253,0.1c0.285-0.44,0.574-0.878,0.856-1.32
	c2.819-4.417,6.975-6.028,12.022-5.599c3.431,0.291,3.425,0.362,3.425,3.821c0,3.314,0,6.628,0,10.101
	c-0.461-0.097-0.789-0.202-1.123-0.229c-2.336-0.193-4.689-0.636-7.006-0.494c-3.981,0.245-6.565,2.925-7.328,7.195
	c-0.238,1.33-0.355,2.698-0.366,4.049c-0.042,4.918-0.017,9.837-0.017,14.756C286.467,67.6,286.467,68.07,286.467,68.596z"/>
<path fill="#FFFFFF" d="M677.391,28.894c5.283,0,10.504,0,15.837,0c0,13.196,0,26.394,0,39.676c-5.244,0-10.497,0-15.837,0
	C677.391,55.365,677.391,42.166,677.391,28.894z"/>
<path fill="#FFFFFF" d="M693.264,14.016c0,3.558,0,7.047,0,10.608c-5.318,0-10.565,0-15.886,0c0-3.558,0-7.047,0-10.608
	C682.697,14.016,687.943,14.016,693.264,14.016z"/>
<path d="M40.409,27.94c3.965,0.125,7.845,0.102,11.697,0.417c2.788,0.228,4.167,1.834,4.305,4.286
	c0.18,3.207-0.982,5.094-3.771,5.843c-1.184,0.318-2.438,0.466-3.666,0.507c-2.636,0.087-5.277,0.054-7.916,0.067
	c-0.193,0.001-0.386-0.03-0.648-0.052C40.409,35.376,40.409,31.8,40.409,27.94z"/>
<path d="M592.817,48.988c-3.625,0-7.043,0-10.644,0c1.823-5.542,3.608-10.971,5.514-16.766
	C589.45,37.983,591.114,43.421,592.817,48.988z"/>
<path d="M768.743,51.064c-0.093,1.612-0.028,3.184-0.299,4.695c-0.772,4.302-6.449,6.38-9.926,3.701
	c-2.039-1.571-1.856-4.294,0.398-5.523c0.589-0.321,1.235-0.564,1.883-0.743C763.361,52.484,765.935,51.813,768.743,51.064z"/>
<path d="M121.29,51.05c-0.115,1.637-0.067,3.258-0.369,4.81c-0.83,4.252-6.503,6.261-9.923,3.589
	c-2.036-1.591-1.823-4.313,0.462-5.533c0.628-0.335,1.315-0.589,2.003-0.78C115.996,52.436,118.54,51.779,121.29,51.05z"/>
<path d="M388.274,48.747c0.274-1.776,0.393-3.544,0.84-5.224c0.796-2.991,3.037-4.576,6.102-4.579
	c3.035-0.003,5.196,1.508,6.072,4.451c1.049,3.523,1.04,7.105,0.017,10.629c-0.883,3.043-3.023,4.537-6.129,4.522
	c-3.038-0.015-5.188-1.516-6.022-4.503C388.677,52.333,388.557,50.523,388.274,48.747z"/>
<path d="M238.017,44.156c0.332-4.111,3.498-6.566,8.277-6.463c3.67,0.079,6.496,2.805,6.605,6.463
	C247.938,44.156,242.979,44.156,238.017,44.156z"/>
</svg>
